<?xml version="1.0" encoding="UTF-8"?>
<!DOCTYPE svg PUBLIC "-//W3C//DTD SVG 1.1//EN" "http://www.w3.org/Graphics/SVG/1.1/DTD/svg11.dtd">
<svg xmlns="http://www.w3.org/2000/svg" version="1.1" width="1964px" height="663px" style="shape-rendering:geometricPrecision; text-rendering:geometricPrecision; image-rendering:optimizeQuality; fill-rule:evenodd; clip-rule:evenodd" xmlns:xlink="http://www.w3.org/1999/xlink">
<g><path style="opacity:0.923" fill="#3e9fc9" d="M 1824.5,-0.5 C 1832.17,-0.5 1839.83,-0.5 1847.5,-0.5C 1853.6,2.0772 1858.77,6.0772 1863,11.5C 1871.57,27.8771 1878.57,44.8771 1884,62.5C 1897.01,104.534 1907.34,147.201 1915,190.5C 1915.67,196.833 1915.67,203.167 1915,209.5C 1913.5,211 1912,212.5 1910.5,214C 1871.12,232.864 1830.78,249.197 1789.5,263C 1787.59,268.986 1784.76,274.486 1781,279.5C 1769.72,292.234 1760.55,290.9 1753.5,275.5C 1749.62,278.161 1745.28,279.161 1740.5,278.5C 1737.48,292.844 1729.48,296.678 1716.5,290C 1715.7,288.229 1714.53,286.729 1713,285.5C 1709.13,289.685 1704.3,291.685 1698.5,291.5C 1695.31,301.265 1688.64,305.098 1678.5,303C 1673,301.407 1667.67,299.574 1662.5,297.5C 1651.52,298.574 1640.52,298.741 1629.5,298C 1623.21,295.038 1619.04,290.205 1617,283.5C 1599.99,232.147 1579.66,182.147 1556,133.5C 1553.33,129.5 1550.67,125.5 1548,121.5C 1545.27,115.704 1546.44,110.87 1551.5,107C 1554.03,106.381 1556.37,105.381 1558.5,104C 1553.44,88.1131 1558.78,77.4465 1574.5,72C 1586.2,72.9234 1596.7,77.0901 1606,84.5C 1672,56.4974 1738.5,29.6641 1805.5,4C 1811.93,2.30755 1818.26,0.807552 1824.5,-0.5 Z M 1829.5,8.5 C 1844.29,5.80778 1854.13,11.4744 1859,25.5C 1871.12,53.9747 1880.79,83.3081 1888,113.5C 1895.28,140.555 1901.28,167.888 1906,195.5C 1906.67,198.5 1906.67,201.5 1906,204.5C 1868.3,223.02 1829.64,239.02 1790,252.5C 1789.67,243.833 1789.33,235.167 1789,226.5C 1787.95,215.446 1781.95,208.779 1771,206.5C 1755.73,211.822 1747.57,222.655 1746.5,239C 1747.71,247.361 1749.04,255.694 1750.5,264C 1748.34,268.04 1745.01,269.374 1740.5,268C 1741.63,263.921 1741.8,259.755 1741,255.5C 1738.74,251.05 1737.07,246.383 1736,241.5C 1732.67,236.167 1729.33,230.833 1726,225.5C 1716.53,215.531 1706.87,215.198 1697,224.5C 1694.22,228.238 1692.38,232.404 1691.5,237C 1692.17,241.2 1693.01,245.367 1694,249.5C 1696.79,254.534 1698.79,259.868 1700,265.5C 1701.54,269.419 1703.71,272.919 1706.5,276C 1704.96,277.11 1704.3,278.61 1704.5,280.5C 1701.79,280.575 1699.13,280.908 1696.5,281.5C 1696.2,275.83 1694.7,270.497 1692,265.5C 1688.19,261.869 1684.86,257.869 1682,253.5C 1673.46,245.954 1664.62,238.788 1655.5,232C 1648.85,227.459 1642.19,227.459 1635.5,232C 1632.67,234.833 1629.83,237.667 1627,240.5C 1622.71,246.255 1622.04,252.255 1625,258.5C 1633.8,269.632 1643.63,279.798 1654.5,289C 1647.5,289.667 1640.5,289.667 1633.5,289C 1631.71,288.215 1630.21,287.049 1629,285.5C 1616.46,249.867 1603.12,214.534 1589,179.5C 1580.13,157.255 1569.29,136.088 1556.5,116C 1558.84,114.972 1561.18,114.306 1563.5,114C 1566.49,119.978 1569.65,125.811 1573,131.5C 1579.91,138.037 1588.07,142.037 1597.5,143.5C 1602.81,142.676 1607.48,140.509 1611.5,137C 1615.67,132.833 1619.83,128.667 1624,124.5C 1630.29,114.785 1629.62,105.452 1622,96.5C 1619.59,94.7093 1617.09,93.0426 1614.5,91.5C 1680.37,63.8978 1746.71,37.3978 1813.5,12C 1818.97,10.7962 1824.3,9.62952 1829.5,8.5 Z"/></g>
<g><path style="opacity:0.957" fill="#3e9fc9" d="M 1827.5,24.5 C 1832.93,24.0711 1836.76,26.4045 1839,31.5C 1845.28,47.6622 1851.94,63.6622 1859,79.5C 1861.53,86.8799 1859.03,91.3799 1851.5,93C 1839.5,96.3333 1827.5,99.6667 1815.5,103C 1810.15,104.652 1805.99,103.152 1803,98.5C 1796.94,85.3775 1790.61,72.3775 1784,59.5C 1782.06,53.1103 1783.89,48.2769 1789.5,45C 1802.42,38.3778 1815.09,31.5445 1827.5,24.5 Z"/></g>
<g><path style="opacity:0.912" fill="#3e9fc9" d="M 1399.5,38.5 C 1409.7,37.3305 1419.37,38.9972 1428.5,43.5C 1434.45,53.5994 1431.62,58.5994 1420,58.5C 1410.8,56.9121 1402.3,58.7454 1394.5,64C 1388.09,69.7375 1382.43,76.0709 1377.5,83C 1368.76,86.1169 1364.09,82.9502 1363.5,73.5C 1366.62,62.7635 1372.62,53.9302 1381.5,47C 1387.21,43.3101 1393.21,40.4768 1399.5,38.5 Z"/></g>
<g><path style="opacity:0.915" fill="#3e9fc9" d="M 1311.5,102.5 C 1325.16,101.969 1329.66,107.969 1325,120.5C 1318.29,124.312 1311.12,127.145 1303.5,129C 1290.59,134.968 1285.26,145.135 1287.5,159.5C 1284.95,162.722 1281.95,163.222 1278.5,161C 1266.79,142.068 1270.13,126.068 1288.5,113C 1296.26,109.451 1303.92,105.951 1311.5,102.5 Z"/></g>
<g><path style="opacity:0.928" fill="#3e9fc9" d="M 1863.5,111.5 C 1874.03,111.199 1878.2,116.199 1876,126.5C 1871.59,130.288 1866.76,133.455 1861.5,136C 1832.42,140.883 1803.75,147.55 1775.5,156C 1764.43,157.923 1759.59,153.423 1761,142.5C 1762.87,140.291 1765.04,138.458 1767.5,137C 1794.6,127.975 1822.27,121.309 1850.5,117C 1855.15,115.666 1859.49,113.833 1863.5,111.5 Z"/></g>
<g><path style="opacity:0.981" fill="#3e9fc9" d="M 1477.5,112.5 C 1479.2,112.34 1480.87,112.506 1482.5,113C 1503.01,132.177 1516.84,155.343 1524,182.5C 1524.67,193.833 1524.67,205.167 1524,216.5C 1519.61,232.609 1511.61,246.609 1500,258.5C 1485.52,274.487 1468.35,286.653 1448.5,295C 1415.07,304.892 1385.4,298.225 1359.5,275C 1349.3,265.137 1339.47,254.971 1330,244.5C 1328,241.833 1328,239.167 1330,236.5C 1379.15,195.03 1428.31,153.696 1477.5,112.5 Z"/></g>
<g><path style="opacity:0.928" fill="#3e9fc9" d="M 1876.5,142.5 C 1885.17,140.043 1890.51,143.043 1892.5,151.5C 1890.03,158.797 1885.03,163.63 1877.5,166C 1848.77,171.012 1820.44,177.679 1792.5,186C 1780.46,188.939 1774.96,184.439 1776,172.5C 1777.54,170.622 1779.38,169.122 1781.5,168C 1808.22,158.82 1835.55,152.153 1863.5,148C 1868.15,146.666 1872.49,144.833 1876.5,142.5 Z"/></g>
<g><path style="opacity:0.976" fill="#896f52" d="M 1244.5,169.5 C 1246.83,169.5 1249.17,169.5 1251.5,169.5C 1252.91,179.797 1254.08,190.13 1255,200.5C 1255.81,206.084 1255.64,211.584 1254.5,217C 1232.21,221.491 1209.88,225.658 1187.5,229.5C 1188.17,234.5 1188.83,239.5 1189.5,244.5C 1211.15,240.725 1232.81,237.059 1254.5,233.5C 1256.57,248.565 1257.91,263.565 1258.5,278.5C 1237.6,283.095 1216.6,287.262 1195.5,291C 1194.98,291.561 1194.64,292.228 1194.5,293C 1195.04,297.246 1195.88,301.413 1197,305.5C 1218.71,300.39 1240.55,295.724 1262.5,291.5C 1264.41,296.63 1265.58,301.963 1266,307.5C 1267.16,317.811 1268,328.144 1268.5,338.5C 1229.43,347.247 1190.1,354.58 1150.5,360.5C 1145.2,325.655 1141.04,290.655 1138,255.5C 1135.77,234.438 1134.27,213.438 1133.5,192.5C 1170.33,183.371 1207.33,175.705 1244.5,169.5 Z"/></g>
<g><path style="opacity:0.98" fill="#896f52" d="M 1100.5,189.5 C 1104.38,190.059 1108.21,190.725 1112,191.5C 1119.03,245.726 1124.36,300.059 1128,354.5C 1115.38,361.818 1101.88,366.318 1087.5,368C 1067.08,343.572 1045.91,319.739 1024,296.5C 1026.04,322.52 1028.54,348.52 1031.5,374.5C 1013.61,377.229 995.606,378.562 977.5,378.5C 971.374,323.244 966.041,267.91 961.5,212.5C 977.55,207.205 993.55,202.038 1009.5,197C 1028.42,217.913 1046.58,239.413 1064,261.5C 1061.37,241.301 1059.2,220.967 1057.5,200.5C 1057.83,198.833 1058.17,197.167 1058.5,195.5C 1072.49,192.503 1086.49,190.503 1100.5,189.5 Z"/></g>
<g><path style="opacity:0.98" fill="#896f52" d="M 929.5,206.5 C 933.376,207.059 937.209,207.725 941,208.5C 948.026,262.726 953.359,317.059 957,371.5C 944.379,378.818 930.879,383.318 916.5,385C 896.076,360.572 874.909,336.739 853,313.5C 855.035,339.52 857.535,365.52 860.5,391.5C 842.606,394.229 824.606,395.562 806.5,395.5C 800.374,340.244 795.041,284.91 790.5,229.5C 806.55,224.205 822.55,219.038 838.5,214C 857.418,234.913 875.584,256.413 893,278.5C 890.367,258.301 888.2,237.967 886.5,217.5C 886.833,215.833 887.167,214.167 887.5,212.5C 901.494,209.503 915.494,207.503 929.5,206.5 Z"/></g>
<g><path style="opacity:0.979" fill="#896f52" d="M 701.5,223.5 C 740.912,221.436 765.412,239.436 775,277.5C 781.485,311.415 774.818,342.415 755,370.5C 741.952,386.267 725.785,397.433 706.5,404C 652.228,413.797 620.394,391.63 611,337.5C 607.061,271.978 637.228,233.978 701.5,223.5 Z M 694.5,284.5 C 708.594,282.625 718.094,288.292 723,301.5C 725.579,322.179 717.745,337.345 699.5,347C 681.123,352.395 669.29,345.895 664,327.5C 662.403,304.66 672.57,290.327 694.5,284.5 Z"/></g>
<g><path style="opacity:0.979" fill="#896f52" d="M 509.5,245.5 C 536.114,243.09 558.614,251.423 577,270.5C 584.831,282.655 589.497,295.989 591,310.5C 597.637,375.177 569.137,413.677 505.5,426C 491.254,428.175 476.921,429.009 462.5,428.5C 454.104,374.439 448.604,320.105 446,265.5C 453.374,261.065 461.207,257.565 469.5,255C 482.815,251.17 496.149,248.003 509.5,245.5 Z M 508.5,300.5 C 528.257,298.09 539.424,306.757 542,326.5C 545.104,346.47 537.271,359.97 518.5,367C 513.593,368.614 508.593,369.781 503.5,370.5C 501.271,348.276 498.938,326.109 496.5,304C 500.531,302.509 504.531,301.343 508.5,300.5 Z"/></g>
<g><path style="opacity:0.98" fill="#896f52" d="M 318.5,268.5 C 322.376,269.059 326.209,269.725 330,270.5C 337.026,324.726 342.359,379.059 346,433.5C 333.379,440.818 319.879,445.318 305.5,447C 285.076,422.572 263.909,398.739 242,375.5C 244.035,401.52 246.535,427.52 249.5,453.5C 231.606,456.229 213.606,457.562 195.5,457.5C 189.374,402.244 184.041,346.91 179.5,291.5C 195.55,286.205 211.55,281.038 227.5,276C 246.418,296.913 264.584,318.413 282,340.5C 279.367,320.301 277.2,299.967 275.5,279.5C 275.833,277.833 276.167,276.167 276.5,274.5C 290.494,271.503 304.494,269.503 318.5,268.5 Z"/></g>
<g><path style="opacity:0.979" fill="#896f52" d="M -0.5,398.5 C -0.5,392.167 -0.5,385.833 -0.5,379.5C 4.0453,323.45 34.3786,291.95 90.5,285C 132.34,282.84 157.174,302.34 165,343.5C 169.474,373.798 163.474,401.798 147,427.5C 132.839,446.658 114.339,459.491 91.5,466C 38.8516,473.159 8.18493,450.659 -0.5,398.5 Z M 83.5,345.5 C 97.5936,343.625 107.094,349.292 112,362.5C 114.579,383.179 106.745,398.345 88.5,408C 70.123,413.395 58.2897,406.895 53,388.5C 51.4029,365.66 61.5695,351.327 83.5,345.5 Z"/></g>
<g><path style="opacity:0.975" fill="#896f52" d="M 1963.5,408.5 C 1963.5,412.167 1963.5,415.833 1963.5,419.5C 1959.28,448.047 1943.28,466.547 1915.5,475C 1888.02,480.714 1860.69,479.881 1833.5,472.5C 1834.41,457.528 1836.08,442.528 1838.5,427.5C 1856.82,429.618 1875.15,429.785 1893.5,428C 1898.87,427.409 1903.87,425.742 1908.5,423C 1913.05,415.588 1910.88,411.088 1902,409.5C 1885.91,413.801 1869.74,414.301 1853.5,411C 1833.81,402.806 1823.64,387.973 1823,366.5C 1822.59,335.826 1836.42,314.326 1864.5,302C 1890.78,294.894 1917.12,294.894 1943.5,302C 1944.7,303.353 1945.37,305.019 1945.5,307C 1943.71,320.493 1942.04,333.993 1940.5,347.5C 1929.51,346.732 1918.51,346.065 1907.5,345.5C 1897.04,345.055 1887.04,346.888 1877.5,351C 1873,356.813 1874,361.48 1880.5,365C 1892.16,364.169 1903.83,363.002 1915.5,361.5C 1944.77,363.771 1960.77,379.438 1963.5,408.5 Z"/></g>
<g><path style="opacity:0.976" fill="#896f52" d="M 1788.5,306.5 C 1790.83,306.5 1793.17,306.5 1795.5,306.5C 1796.91,316.797 1798.08,327.13 1799,337.5C 1799.81,343.084 1799.64,348.584 1798.5,354C 1776.21,358.491 1753.88,362.658 1731.5,366.5C 1732.17,371.5 1732.83,376.5 1733.5,381.5C 1755.15,377.725 1776.81,374.059 1798.5,370.5C 1800.57,385.565 1801.91,400.565 1802.5,415.5C 1781.6,420.095 1760.6,424.262 1739.5,428C 1738.98,428.561 1738.64,429.228 1738.5,430C 1739.04,434.246 1739.88,438.413 1741,442.5C 1762.71,437.39 1784.55,432.724 1806.5,428.5C 1808.41,433.63 1809.58,438.963 1810,444.5C 1811.16,454.811 1812,465.144 1812.5,475.5C 1773.43,484.247 1734.1,491.58 1694.5,497.5C 1689.2,462.655 1685.04,427.655 1682,392.5C 1679.77,371.438 1678.27,350.438 1677.5,329.5C 1714.33,320.371 1751.33,312.705 1788.5,306.5 Z"/></g>
<g><path style="opacity:0.976" fill="#896f52" d="M 1579.5,332.5 C 1583.5,332.5 1587.5,332.5 1591.5,332.5C 1595.14,372.888 1599.31,413.221 1604,453.5C 1624.32,448.802 1644.82,444.802 1665.5,441.5C 1666.5,441.833 1667.5,442.167 1668.5,442.5C 1671.32,458.061 1672.32,473.728 1671.5,489.5C 1634.79,498.23 1597.79,505.563 1560.5,511.5C 1559.01,511.291 1557.84,510.624 1557,509.5C 1549.89,453.663 1544.89,397.663 1542,341.5C 1554.29,337.147 1566.79,334.147 1579.5,332.5 Z"/></g>
<g><path style="opacity:0.976" fill="#896f52" d="M 1444.5,346.5 C 1448.5,346.5 1452.5,346.5 1456.5,346.5C 1460.14,386.888 1464.31,427.221 1469,467.5C 1489.32,462.802 1509.82,458.802 1530.5,455.5C 1531.5,455.833 1532.5,456.167 1533.5,456.5C 1536.32,472.061 1537.32,487.728 1536.5,503.5C 1499.79,512.23 1462.79,519.563 1425.5,525.5C 1424.01,525.291 1422.84,524.624 1422,523.5C 1414.89,467.663 1409.89,411.663 1407,355.5C 1419.29,351.147 1431.79,348.147 1444.5,346.5 Z"/></g>
<g><path style="opacity:0.976" fill="#896f52" d="M 1377.5,347.5 C 1379.83,347.5 1382.17,347.5 1384.5,347.5C 1385.91,357.797 1387.08,368.13 1388,378.5C 1388.81,384.084 1388.64,389.584 1387.5,395C 1365.21,399.491 1342.88,403.658 1320.5,407.5C 1321.17,412.5 1321.83,417.5 1322.5,422.5C 1344.15,418.725 1365.81,415.059 1387.5,411.5C 1389.57,426.565 1390.91,441.565 1391.5,456.5C 1370.6,461.095 1349.6,465.262 1328.5,469C 1327.98,469.561 1327.64,470.228 1327.5,471C 1328.04,475.246 1328.88,479.413 1330,483.5C 1351.71,478.39 1373.55,473.724 1395.5,469.5C 1397.41,474.63 1398.58,479.963 1399,485.5C 1400.16,495.811 1401,506.144 1401.5,516.5C 1362.43,525.247 1323.1,532.58 1283.5,538.5C 1278.2,503.655 1274.04,468.655 1271,433.5C 1268.77,412.438 1267.27,391.438 1266.5,370.5C 1303.33,361.371 1340.33,353.705 1377.5,347.5 Z"/></g>
<g><path style="opacity:0.976" fill="#896f52" d="M 1221.5,361.5 C 1229.21,361.295 1236.88,361.795 1244.5,363C 1245.52,363.519 1246.18,364.353 1246.5,365.5C 1237.41,422.695 1227.25,479.695 1216,536.5C 1212.27,539.087 1208.1,540.921 1203.5,542C 1188.35,546.474 1173.01,548.64 1157.5,548.5C 1131.99,497.311 1107.99,445.478 1085.5,393C 1089.89,390.139 1094.55,387.806 1099.5,386C 1112.66,381.544 1125.99,377.71 1139.5,374.5C 1152.23,404.507 1165.06,434.507 1178,464.5C 1183.86,431.681 1188.36,398.681 1191.5,365.5C 1201.61,363.987 1211.61,362.654 1221.5,361.5 Z"/></g>
<g><path style="opacity:0.976" fill="#896f52" d="M 1061.5,378.5 C 1062.5,378.414 1063.33,378.748 1064,379.5C 1071.55,417.526 1074.22,455.859 1072,494.5C 1064.5,540.002 1037.83,564.669 992,568.5C 974.373,567.355 960.373,559.688 950,545.5C 933.929,519.9 925.596,491.9 925,461.5C 923.578,442.853 923.244,424.186 924,405.5C 938.607,401.307 953.44,397.974 968.5,395.5C 969.772,395.57 970.938,395.903 972,396.5C 973.885,425.803 977.885,454.803 984,483.5C 985.615,492.58 990.115,499.747 997.5,505C 1004.87,506.233 1010.71,503.733 1015,497.5C 1017.66,493.186 1019.33,488.519 1020,483.5C 1020.67,471.5 1020.67,459.5 1020,447.5C 1018.4,427.46 1016.74,407.46 1015,387.5C 1030.4,383.463 1045.9,380.463 1061.5,378.5 Z"/></g>
<g><path style="opacity:0.979" fill="#896f52" d="M 829.5,401.5 C 868.912,399.436 893.412,417.436 903,455.5C 909.485,489.415 902.818,520.415 883,548.5C 869.952,564.267 853.785,575.433 834.5,582C 780.228,591.797 748.394,569.63 739,515.5C 735.061,449.978 765.228,411.978 829.5,401.5 Z M 822.5,462.5 C 836.594,460.625 846.094,466.292 851,479.5C 853.579,500.179 845.745,515.345 827.5,525C 809.123,530.395 797.29,523.895 792,505.5C 790.403,482.66 800.57,468.327 822.5,462.5 Z"/></g>
<g><path style="opacity:0.98" fill="#896f52" d="M 699.5,420.5 C 703.376,421.059 707.209,421.725 711,422.5C 718.026,476.726 723.359,531.059 727,585.5C 714.379,592.818 700.879,597.318 686.5,599C 666.076,574.572 644.909,550.739 623,527.5C 625.035,553.52 627.535,579.52 630.5,605.5C 612.606,608.229 594.606,609.562 576.5,609.5C 570.374,554.244 565.041,498.91 560.5,443.5C 576.55,438.205 592.55,433.038 608.5,428C 627.418,448.913 645.584,470.413 663,492.5C 660.367,472.301 658.2,451.967 656.5,431.5C 656.833,429.833 657.167,428.167 657.5,426.5C 671.494,423.503 685.494,421.503 699.5,420.5 Z"/></g>
<g><path style="opacity:0.975" fill="#896f52" d="M 382.5,446.5 C 401.468,445.863 420.135,447.863 438.5,452.5C 438.833,454 439.167,455.5 439.5,457C 437.709,470.493 436.043,483.993 434.5,497.5C 423.51,496.732 412.51,496.065 401.5,495.5C 391.043,495.055 381.043,496.888 371.5,501C 366.996,506.813 367.996,511.48 374.5,515C 386.164,514.169 397.831,513.002 409.5,511.5C 441.255,514.427 457.255,531.927 457.5,564C 455.262,595.231 439.262,615.564 409.5,625C 389.978,629.898 370.312,630.565 350.5,627C 343.121,625.924 335.788,624.591 328.5,623C 327.484,622.481 326.818,621.647 326.5,620.5C 328.583,606.168 330.583,591.835 332.5,577.5C 353.94,580.578 375.273,580.078 396.5,576C 405.769,573.181 407.436,568.181 401.5,561C 399.645,560.578 397.811,560.078 396,559.5C 379.909,563.801 363.742,564.301 347.5,561C 326.077,551.691 315.744,535.191 316.5,511.5C 318.509,481.642 333.509,461.475 361.5,451C 368.57,449.155 375.57,447.655 382.5,446.5 Z"/></g>
<g><path style="opacity:0.976" fill="#896f52" d="M 282.5,456.5 C 284.833,456.5 287.167,456.5 289.5,456.5C 290.912,466.797 292.079,477.13 293,487.5C 293.806,493.084 293.639,498.584 292.5,504C 270.213,508.491 247.88,512.658 225.5,516.5C 226.167,521.5 226.833,526.5 227.5,531.5C 249.148,527.725 270.814,524.059 292.5,520.5C 294.575,535.565 295.908,550.565 296.5,565.5C 275.597,570.095 254.597,574.262 233.5,578C 232.978,578.561 232.645,579.228 232.5,580C 233.044,584.246 233.877,588.413 235,592.5C 256.713,587.39 278.546,582.724 300.5,578.5C 302.413,583.63 303.579,588.963 304,594.5C 305.165,604.811 305.998,615.144 306.5,625.5C 267.433,634.247 228.1,641.58 188.5,647.5C 183.202,612.655 179.036,577.655 176,542.5C 173.771,521.438 172.271,500.438 171.5,479.5C 208.327,470.371 245.327,462.705 282.5,456.5 Z"/></g>
<g><path style="opacity:0.979" fill="#896f52" d="M 59.5,662.5 C 49.8333,662.5 40.1667,662.5 30.5,662.5C 22.1041,608.439 16.6041,554.105 14,499.5C 23.5633,493.976 33.73,489.809 44.5,487C 58.3823,482.823 72.5489,480.323 87,479.5C 129.574,480.762 153.574,502.429 159,544.5C 165.963,605.652 139.797,643.652 80.5,658.5C 73.3821,659.961 66.3821,661.294 59.5,662.5 Z M 76.5,534.5 C 96.2574,532.09 107.424,540.757 110,560.5C 113.104,580.47 105.271,593.97 86.5,601C 81.5928,602.614 76.5928,603.781 71.5,604.5C 69.2712,582.276 66.9378,560.109 64.5,538C 68.5313,536.509 72.5313,535.343 76.5,534.5 Z"/></g>
<g><path style="opacity:0.969" fill="#3e9fc9" d="M 1915.5,503.5 C 1923.83,503.5 1932.17,503.5 1940.5,503.5C 1945.32,539.057 1948.82,574.724 1951,610.5C 1940.29,613.277 1929.45,615.61 1918.5,617.5C 1916.49,605.87 1914.65,594.203 1913,582.5C 1907.64,596.883 1901.47,610.883 1894.5,624.5C 1884.85,611.215 1875.68,597.548 1867,583.5C 1867.62,595.49 1868.45,607.49 1869.5,619.5C 1858.32,622.363 1846.99,624.363 1835.5,625.5C 1830.93,590.245 1827.43,554.911 1825,519.5C 1837.03,513.714 1849.53,509.547 1862.5,507C 1870.71,521.914 1879.04,536.748 1887.5,551.5C 1893.88,537.003 1898.88,522.003 1902.5,506.5C 1906.87,505.139 1911.2,504.139 1915.5,503.5 Z"/></g>
<g><path style="opacity:0.969" fill="#3e9fc9" d="M 1766.5,513.5 C 1792.39,510.27 1809.22,520.937 1817,545.5C 1822.97,573.923 1815.47,598.089 1794.5,618C 1775.12,632.387 1754.46,634.387 1732.5,624C 1720.32,614.14 1713.48,601.307 1712,585.5C 1709.73,545.649 1727.89,521.649 1766.5,513.5 Z M 1765.5,552.5 C 1779.16,552.13 1785.33,558.797 1784,572.5C 1780.88,586.972 1772.05,593.806 1757.5,593C 1750.06,589.794 1746.06,584.127 1745.5,576C 1747.06,563.62 1753.73,555.786 1765.5,552.5 Z"/></g>
<g><path style="opacity:0.959" fill="#3e9fc9" d="M 1669.5,524.5 C 1680.03,524.003 1690.03,526.003 1699.5,530.5C 1700.61,531.723 1700.78,533.056 1700,534.5C 1696.37,545.259 1691.54,555.425 1685.5,565C 1668.45,558.11 1656.95,563.276 1651,580.5C 1649.91,597.745 1657.74,604.578 1674.5,601C 1679.85,598.997 1684.51,595.997 1688.5,592C 1689.5,591.333 1690.5,591.333 1691.5,592C 1698.99,599.148 1705.32,607.148 1710.5,616C 1699.14,631.599 1683.64,639.432 1664,639.5C 1640.42,639.895 1625.42,628.895 1619,606.5C 1611.78,575.15 1621.28,550.317 1647.5,532C 1654.58,528.364 1661.91,525.864 1669.5,524.5 Z"/></g>
<g><path style="opacity:0.934" fill="#3e9fc9" d="M 1593.5,618.5 C 1609.46,619.079 1614.29,626.746 1608,641.5C 1601.06,649.209 1592.56,651.709 1582.5,649C 1576.06,644.684 1574.23,638.85 1577,631.5C 1580.77,624.877 1586.27,620.543 1593.5,618.5 Z"/></g>
</svg>
